<svg id="Capa_1" enable-background="new 0 0 512.028 512.028" height="512" viewBox="0 0 512.028 512.028" width="512" xmlns="http://www.w3.org/2000/svg"><g><g><g><path d="m245.536 11.413c6.046-5.179 14.91-5.179 20.956 0 40.396 34.602 183.783 166.729 183.783 298.855 0 107.287-86.974 194.261-194.261 194.261s-194.261-86.974-194.261-194.262c0-132.126 143.386-264.252 183.783-298.854z" fill="#e3f5ff"/><path d="m328.862 480.246c-107.287 0-194.261-86.974-194.261-194.261 0-103.164 87.413-206.325 144.965-263.066-5.046-4.549-9.482-8.43-13.074-11.506-6.046-5.179-14.91-5.179-20.957 0-40.396 34.602-183.782 166.728-183.782 298.854 0 107.287 86.974 194.261 194.261 194.261 35.207 0 68.195-9.413 96.671-25.789-7.813.956-15.752 1.507-23.823 1.507z" fill="#d1edff"/><path d="m255.942 196.952c.013 0 .024.001.037.001s.023-.001.036-.001z" fill="#7ad7ee"/><path d="m361.166 196.952c-26.306 0-26.306 16.188-52.613 16.188-26.293 0-26.308-16.171-52.575-16.187-26.268.016-26.283 16.187-52.577 16.187-26.306 0-26.306-16.188-52.612-16.188-26.307 0-26.307 16.188-52.613 16.188-5.164 0-9.293-.637-12.827-1.64-14.384 31.869-23.596 65.314-23.596 98.767 0 107.287 86.974 194.261 194.261 194.261s194.261-86.974 194.261-194.261c0-33.459-9.217-66.912-23.606-98.787-3.549 1.014-7.695 1.66-12.891 1.66-26.306 0-26.306-16.188-52.612-16.188z" fill="#7ad7ee"/><g fill="#4bc3ef"><path d="m256.014 504.528c35.206 0 68.195-9.413 96.671-25.789-7.813.956-15.751 1.506-23.823 1.506-107.287 0-194.261-86.974-194.261-194.261 0-30.021 7.435-60.033 19.35-88.909-1.03-.056-2.04-.124-3.161-.124-26.307 0-26.307 16.188-52.613 16.188-5.164 0-9.293-.637-12.827-1.64-14.384 31.869-23.596 65.314-23.596 98.767-.001 107.289 86.973 194.262 194.26 194.262z"/><path d="m255.942 237.419c.013 0 .024.001.037.001s.023-.001.036-.001z"/><path d="m450.275 310.267c0-21.662-3.909-43.314-10.532-64.546-6.465 3.976-13.038 7.886-25.965 7.886-26.306 0-26.306-16.188-52.612-16.188s-26.306 16.188-52.613 16.188c-26.293 0-26.308-16.171-52.575-16.186-26.268.016-26.283 16.186-52.577 16.186-26.306 0-26.306-16.188-52.612-16.188-26.307 0-26.307 16.188-52.613 16.188-12.886 0-19.458-3.886-25.904-7.849-6.615 21.22-10.519 42.86-10.519 64.509 0 107.287 86.974 194.261 194.261 194.261s194.261-86.973 194.261-194.261z"/></g><path d="m352.685 478.739c-7.813.956-15.751 1.506-23.823 1.506-107.287 0-194.261-86.974-194.261-194.261 0-15.893 2.088-31.785 5.809-47.509-16.492 3.558-19.959 15.131-42.233 15.131-12.886 0-19.458-3.886-25.904-7.849-6.615 21.22-10.519 42.86-10.519 64.509 0 107.287 86.974 194.261 194.261 194.261 35.205.001 68.194-9.412 96.67-25.788z" fill="#1badde"/><ellipse cx="288.391" cy="423.586" fill="#1badde" rx="32.377" ry="16.188"/><ellipse cx="353.145" cy="318.361" fill="#1badde" rx="32.377" ry="16.188"/><ellipse cx="183.166" cy="342.644" fill="#0096d4" rx="32.377" ry="16.188"/></g><g><path d="m271.371 5.717c-8.898-7.623-21.815-7.622-30.714 0-43.728 37.456-186.404 170.115-186.404 304.551 0 111.251 90.51 201.761 201.761 201.761s201.761-90.51 201.761-201.761c0-134.436-142.675-267.095-186.404-304.551zm-15.357 491.311c-102.98 0-186.761-83.78-186.761-186.761 0-17.211 2.514-35.057 7.509-53.482 5.453 2.477 12.118 4.323 21.394 4.323 15.271 0 23.217-4.892 30.228-9.208 6.335-3.9 11.339-6.981 22.363-6.981 1.98 0 3.866.106 5.604.316 4.113.494 7.848-2.435 8.345-6.547s-2.435-7.848-6.547-8.345c-2.333-.281-4.824-.424-7.402-.424-15.271 0-23.217 4.892-30.228 9.208-6.335 3.9-11.339 6.981-22.363 6.981-7.97 0-12.854-1.679-16.977-3.833 2.459-7.322 5.299-14.73 8.515-22.221 2.668.378 5.457.583 8.461.583 15.271 0 23.217-4.892 30.227-9.207 6.335-3.9 11.34-6.981 22.364-6.981 11.025 0 16.029 3.081 22.365 6.981 7.01 4.315 14.956 9.207 30.228 9.207 15.274 0 23.222-4.892 30.234-9.207 6.337-3.9 11.343-6.981 22.372-6.981 11.02 0 16.023 3.081 22.356 6.98 7.009 4.316 14.953 9.208 30.221 9.208 8.562 0 15.714-1.533 22.506-4.824 3.728-1.806 5.286-6.292 3.479-10.02-1.806-3.728-6.293-5.284-10.02-3.479-3.193 1.547-7.894 3.323-15.966 3.323-11.021 0-16.022-3.08-22.356-6.98-7.009-4.316-14.953-9.208-30.221-9.208-15.275 0-23.222 4.892-30.234 9.207-6.337 3.9-11.343 6.981-22.372 6.981-11.024 0-16.029-3.081-22.364-6.981-7.01-4.316-14.956-9.208-30.228-9.208-15.271 0-23.217 4.892-30.228 9.208-6.335 3.9-11.339 6.981-22.363 6.981-.632 0-1.236-.021-1.84-.042 12.06-24.768 28.12-50.4 48.154-76.791 41.031-54.05 87.759-96.117 105.945-111.695 1.622-1.39 3.61-2.084 5.599-2.084s3.977.694 5.599 2.084c18.186 15.578 64.915 57.645 105.945 111.695 20.036 26.393 36.097 52.028 48.158 76.799-.623.022-1.258.035-1.912.035-11.043 0-16.056-3.082-22.401-6.983-7.018-4.314-14.972-9.205-30.258-9.205-4.142 0-7.5 3.358-7.5 7.5 0 4.143 3.358 7.5 7.5 7.5 11.043 0 16.056 3.082 22.401 6.983 7.018 4.314 14.972 9.205 30.258 9.205 3.035 0 5.835-.2 8.528-.583 3.214 7.485 6.052 14.887 8.509 22.203-4.25 2.225-9.088 3.852-17.038 3.852-11.043 0-16.056-3.082-22.401-6.983-7.018-4.315-14.972-9.206-30.258-9.206-15.278 0-23.228 4.891-30.242 9.207-6.34 3.901-11.348 6.982-22.381 6.982-11.02 0-16.022-3.081-22.356-6.98-7.009-4.316-14.953-9.208-30.221-9.208-15.275 0-23.222 4.891-30.234 9.207-6.337 3.901-11.343 6.981-22.372 6.981-4.237 0-7.891-.474-11.168-1.45-3.97-1.183-8.146 1.078-9.328 5.048s1.079 8.146 5.049 9.328c4.687 1.396 9.74 2.074 15.448 2.074 15.274 0 23.222-4.891 30.234-9.207 6.337-3.9 11.343-6.981 22.372-6.981 11.021 0 16.022 3.081 22.356 6.98 7.009 4.316 14.953 9.208 30.221 9.208 15.278 0 23.228-4.891 30.242-9.207 6.34-3.901 11.348-6.982 22.381-6.982 11.043 0 16.056 3.082 22.401 6.983 7.018 4.315 14.972 9.206 30.258 9.206 9.49 0 16.17-1.905 21.462-4.321 4.995 18.424 7.509 36.27 7.509 53.48.001 102.979-83.779 186.759-186.76 186.759z"/><path d="m288.391 399.897c-12.669 0-24.381 4.627-32.796 12.663l-10.466-10.466c-2.929-2.93-7.678-2.93-10.606 0-2.929 2.929-2.929 7.677 0 10.606l10.885 10.885-10.885 10.886c-2.929 2.929-2.929 7.677 0 10.606 1.464 1.464 3.384 2.196 5.303 2.196s3.839-.732 5.303-2.196l10.466-10.466c8.416 8.036 20.128 12.663 32.796 12.663 15.918 0 30.344-7.285 38.591-19.489 1.714-2.537 1.714-5.862 0-8.399-8.247-12.202-22.673-19.489-38.591-19.489zm0 32.377c-8.717 0-16.948-3.237-22.616-8.688 5.668-5.451 13.899-8.688 22.616-8.688 8.716 0 16.947 3.237 22.616 8.688-5.669 5.452-13.9 8.688-22.616 8.688z"/><path d="m353.145 294.673c-12.668 0-24.38 4.627-32.796 12.663l-10.466-10.466c-2.929-2.93-7.678-2.93-10.606 0-2.929 2.929-2.929 7.677 0 10.606l10.885 10.885-10.885 10.886c-2.929 2.929-2.929 7.677 0 10.606 1.464 1.464 3.384 2.196 5.303 2.196s3.839-.732 5.303-2.196l10.466-10.466c8.416 8.036 20.127 12.663 32.796 12.663 15.918 0 30.345-7.285 38.591-19.489 1.714-2.537 1.714-5.861 0-8.398-8.246-12.204-22.673-19.49-38.591-19.49zm0 32.377c-8.716 0-16.947-3.237-22.616-8.688 5.668-5.451 13.899-8.688 22.616-8.688s16.948 3.237 22.616 8.688c-5.669 5.451-13.9 8.688-22.616 8.688z"/><path d="m183.166 318.956c-12.669 0-24.381 4.627-32.796 12.662l-10.466-10.466c-2.929-2.929-7.678-2.929-10.606 0-2.929 2.929-2.929 7.678 0 10.607l10.885 10.885-10.885 10.885c-2.929 2.929-2.929 7.678 0 10.606 1.464 1.465 3.384 2.197 5.303 2.197s3.839-.732 5.303-2.197l10.466-10.466c8.415 8.036 20.127 12.663 32.796 12.663 15.918 0 30.345-7.286 38.591-19.49 1.714-2.537 1.714-5.861 0-8.398-8.246-12.203-22.673-19.488-38.591-19.488zm0 32.376c-8.717 0-16.948-3.237-22.616-8.688 5.668-5.451 13.899-8.688 22.616-8.688 8.716 0 16.947 3.237 22.616 8.688-5.668 5.452-13.899 8.688-22.616 8.688z"/></g></g></g></svg>