<svg id="Capa_1" enable-background="new 0 0 512 512" height="512" viewBox="0 0 512 512" width="512" xmlns="http://www.w3.org/2000/svg"><g><g><g><path d="m202.821 337.391c-12.862 12.586-19.291 29.217-19.291 45.853 0 16.416 6.259 32.827 18.783 45.351l-42.594 16.221c-24.79-24.79-37.182-57.281-37.182-89.772 0-32.189 12.163-64.377 36.493-89.077 49.378-50.129 131.28-49.648 181.035.107l38.508 38.508c16.412 16.412 16.412 43.022 0 59.434-16.412 16.412-43.022 16.412-59.434 0l-25.545-25.545c-24.946-24.946-65.558-25.753-90.773-1.08z" fill="#80b4fb"/><path d="m205.956 289.068c-17.259 16.888-25.885 39.204-25.885 61.528 0 22.028 8.399 44.049 25.204 60.854l48.528 48.528-105.683-26.762c-33.264-33.264-49.893-76.862-49.893-120.461 0-43.192 16.321-86.385 48.968-119.529 66.258-67.266 176.158-66.62 242.922.144l51.672 51.672c22.023 22.023 22.023 57.729 0 79.751-22.023 22.023-57.729 22.023-79.751 0l-34.277-34.277c-33.474-33.472-87.969-34.555-121.805-1.448z" fill="#5986cb"/><path d="m479.014 139.969-66.931-66.931c-86.481-86.481-228.837-87.318-314.663-.187-42.289 42.932-63.429 98.88-63.429 154.828v232.299h140.891l106.976 4.747-109.206-109.205c-21.768-21.768-32.648-50.293-32.648-78.826 0-28.916 11.174-57.823 33.53-79.698 43.828-42.885 114.417-41.482 157.776 1.877l44.4 44.4c28.526 28.526 74.777 28.526 103.303 0 28.528-28.527 28.528-74.777.001-103.304z" fill="#80b4fb"/><path d="m286.12 10.14c-45.8 6.59-89.79 27.45-124.52 62.71-42.29 42.93-63.43 98.88-63.43 154.83v232.3h-64.18v-232.3c0-55.95 21.14-111.9 63.43-154.83 50.85-51.62 121.54-72.37 188.7-62.71z" fill="#5986cb"/></g><path d="m504.5 435.797c-49.699 0-49.699-20-99.398-20-49.698 0-49.698 20-99.396 20-49.699 0-49.699-20-99.399-20-49.702 0-49.702 20-99.404 20s-49.702-20-99.404-20v88.364h497v-68.364z" fill="#5986cb"/></g><g><path d="m504.5 428.296c-23.397 0-34.813-4.594-46.899-9.458-12.879-5.183-26.196-10.542-52.498-10.542s-39.619 5.359-52.498 10.542c-12.086 4.864-23.502 9.458-46.898 9.458-23.397 0-34.813-4.594-46.899-9.458-5.806-2.336-11.705-4.707-18.839-6.608l-46.252-46.252c2.792-8.751 7.701-16.719 14.346-23.228 22.075-21.594 58.064-21.136 80.224 1.023l25.549 25.548c9.347 9.346 21.783 14.499 35.022 14.507 13.229 0 25.668-5.152 35.023-14.508 5.875-5.876 10.089-12.956 12.42-20.764 1.858.161 3.73.256 5.618.256 17.06 0 33.101-6.646 45.17-18.715 17.405-17.406 23.114-43.061 15.283-65.907 8.033-3.884 15.447-9.121 21.94-15.617 15.218-15.207 23.599-35.434 23.599-56.955 0-16.183-4.776-31.778-13.813-45.101-2.327-3.428-6.992-4.321-10.417-1.996-3.429 2.325-4.322 6.989-1.997 10.417 7.345 10.828 11.228 23.511 11.228 36.68 0 17.512-6.819 33.971-19.205 46.348-12.376 12.381-28.834 19.2-46.341 19.2-17.508 0-33.969-6.819-46.351-19.201l-44.4-44.4c-46.44-46.442-121.954-47.308-168.328-1.927-23.076 22.58-35.785 52.785-35.785 85.051 0 31.783 12.376 61.662 34.847 84.133l47.688 47.688c-2.746-.138-5.644-.215-8.727-.215-26.304 0-39.622 5.359-52.502 10.542-12.087 4.864-23.504 9.458-46.902 9.458s-34.814-4.594-46.901-9.458c-5.717-2.301-11.524-4.635-18.512-6.521v-170.687c0-4.142-3.357-7.5-7.5-7.5s-7.5 3.358-7.5 7.5v167.767c-5.525-.694-11.766-1.1-18.99-1.1-4.143 0-7.5 3.358-7.5 7.5v88.364c0 4.142 3.357 7.5 7.5 7.5h497c4.143 0 7.5-3.358 7.5-7.5v-68.364c-.003-4.142-3.36-7.5-7.503-7.5zm-131.228-69.581c-6.521 6.522-15.192 10.114-24.411 10.114-9.231-.006-17.905-3.598-24.421-10.114l-25.548-25.548c-27.944-27.943-73.395-28.454-101.323-1.136-3.66 3.585-6.902 7.523-9.69 11.739 1.595-18.712 9.723-36.034 23.323-49.344 30.619-29.956 80.528-29.332 111.251 1.392l34.28 34.281c7.087 7.086 15.551 12.286 24.782 15.385-1.686 4.946-4.461 9.449-8.243 13.231zm-225.772-82.026c0-28.197 11.107-54.594 31.275-74.329 40.527-39.657 106.574-38.844 147.23 1.813l44.4 44.4c15.216 15.215 35.443 23.594 56.958 23.594 7.169 0 14.189-.951 20.934-2.755 5.811 17.392 1.414 36.848-11.818 50.079-9.235 9.235-21.51 14.322-34.563 14.322-13.063 0-25.342-5.086-34.577-14.321l-34.28-34.281c-36.508-36.508-95.879-37.184-132.35-1.506-16.719 16.364-26.51 37.816-27.949 60.931-16.341-18.876-25.26-42.725-25.26-67.947zm349.5 219.971h-482v-73.193c18.489.873 28.684 4.974 39.402 9.288 12.88 5.183 26.198 10.542 52.501 10.542 26.304 0 39.622-5.359 52.502-10.542 12.087-4.864 23.504-9.458 46.902-9.458 23.397 0 34.813 4.594 46.899 9.458 12.879 5.183 26.197 10.542 52.499 10.542s39.619-5.359 52.498-10.542c12.086-4.864 23.502-9.458 46.898-9.458s34.813 4.594 46.898 9.458c11.594 4.666 23.542 9.475 44.999 10.388v53.517z"/><path d="m33.959 221.225c.16.01.319.015.478.015 3.928 0 7.229-3.056 7.479-7.03 3.22-51.207 24.829-99.54 60.848-136.097 39.662-40.263 93.081-62.556 150.415-62.771 28.253-.093 55.794 5.154 81.89 15.634 26.993 10.841 51.119 26.777 71.709 47.367l57.07 57.07c2.93 2.929 7.678 2.929 10.607 0s2.929-7.678 0-10.606l-57.07-57.07c-22.03-22.029-47.844-39.081-76.727-50.68-27.624-11.094-56.768-16.717-86.64-16.717-.299 0-.598.001-.896.002-61.362.231-118.557 24.112-161.045 67.244-38.555 39.131-61.686 90.869-65.133 145.683-.259 4.134 2.881 7.696 7.015 7.956z"/></g></g></svg>